<svg width="811" height="620" xmlns="http://www.w3.org/2000/svg" xmlns:xlink="http://www.w3.org/1999/xlink" xml:space="preserve" overflow="hidden"><g transform="translate(-371 -1448)"><path d="M-0.493853 377.741 88.5062 377.741 88.5062-0.259438-0.493853-0.259438-0.493853 377.741" fill="#3B9C92" fill-rule="evenodd" transform="matrix(1 0 0 -1 868 2067)"/><path d="M-0.493853 30.8572 88.5062 30.8572 88.5062-0.143095-0.493853-0.143095-0.493853 30.8572" fill="#47A89C" fill-rule="evenodd" transform="matrix(1 0 0 -1 868 2023)"/><path d="M-0.493853 14.8242 88.5062 14.8242 88.5062-0.175942-0.493853-0.175942-0.493853 14.8242" fill="#47A89C" fill-rule="evenodd" transform="matrix(1 0 0 -1 868 1979)"/><path d="M88.5062-0.373109-0.493853-0.373109-0.493853 30.6275 88.5062 30.6275 88.5062-0.373109" fill="#47A89C" fill-rule="evenodd" transform="matrix(1 0 0 -1 868 1764)"/><path d="M88.5062-0.34287-0.493853-0.34287-0.493853 14.6573 88.5062 14.6573 88.5062-0.34287" fill="#47A89C" fill-rule="evenodd" transform="matrix(1 0 0 -1 868 1792)"/><path d="M-0.495749 8.91146-0.495749 12.2489C-0.495749 17.4075 3.5859 21.5828 8.62337 21.5828L57.3808 21.5828C62.4187 21.5828 66.5046 17.4075 66.5046 12.2489L66.5046 8.91146C66.5046 3.76244 62.4187-0.417598 57.3808-0.417598L8.62337-0.417598C3.5859-0.417598-0.495749 3.76244-0.495749 8.91146" fill="#66BAAC" fill-rule="evenodd" transform="matrix(1 0 0 -1 878 1722)"/><path d="M-0.303307-0.367161 143.697-0.367161 143.697 618.633-0.303307 618.633Z" fill="#2F69B5" fill-rule="evenodd" transform="matrix(1 0 0 -1 555 2067)"/><path d="M-0.303814-0.61703 141.697-0.61703 141.697 3.38347-0.303814 3.38347Z" fill="#FFFFFF" fill-rule="evenodd" transform="matrix(1 0 0 -1 557 1498)"/><path d="M-0.301499-0.567517 115.699-0.567517 115.699 36.4323-0.301499 36.4323Z" fill="#4A90CD" fill-rule="evenodd" transform="matrix(1 0 0 -1 570 1558)"/><path d="M-0.301507-0.450219 115.699-0.450219 115.699 106.55-0.301507 106.55Z" fill="#4A90CD" fill-rule="evenodd" transform="matrix(1 0 0 -1 570 1714)"/><path d="M-0.303814-0.537353 141.697-0.537353 141.697 3.46315-0.303814 3.46315Z" fill="#FFFFFF" fill-rule="evenodd" transform="matrix(1 0 0 -1 557 1585)"/><path d="M-0.303814-0.392453 141.697-0.392453 141.697 3.60805-0.303814 3.60805Z" fill="#FFFFFF" fill-rule="evenodd" transform="matrix(1 0 0 -1 557 1743)"/><path d="M-0.301505-0.256766 115.699-0.256766 115.699 223.744-0.301505 223.744Z" fill="#4A90CD" fill-rule="evenodd" transform="matrix(1 0 0 -1 570 1993)"/><path d="M-0.303814-0.137706 141.697-0.137706 141.697 3.86206-0.303814 3.86206Z" fill="#FFFFFF" fill-rule="evenodd" transform="matrix(1 0 0 -1 557 2020)"/><path d="M168.591 504.684 168.591-0.316385-0.409167-0.316385-0.409167 504.684 168.591 504.684" fill="#F9A51B" fill-rule="evenodd" transform="matrix(1 0 0 -1 699 2067)"/><path d="M-0.409863-0.131055 166.591-0.131055 166.591 3.86908-0.409863 3.86908Z" fill="#FFFFFF" fill-rule="evenodd" transform="matrix(1 0 0 -1 699 2028)"/><path d="M-0.369847-0.160109 3.63065-0.160109 3.63065 55.8403-0.369847 55.8403Z" fill="#FFFFFF" fill-rule="evenodd" transform="matrix(1 0 0 -1 710 2016)"/><path d="M-0.386153-0.160109 3.61435-0.160109 3.61435 55.8403-0.386153 55.8403Z" fill="#FFFFFF" fill-rule="evenodd" transform="matrix(1 0 0 -1 733 2016)"/><path d="M-0.401975-0.160109 3.59853-0.160109 3.59853 55.8403-0.401975 55.8403Z" fill="#FFFFFF" fill-rule="evenodd" transform="matrix(1 0 0 -1 757 2016)"/><path d="M-0.418765-0.160109 3.58174-0.160109 3.58174 55.8403-0.418765 55.8403Z" fill="#FFFFFF" fill-rule="evenodd" transform="matrix(1 0 0 -1 780 2016)"/><path d="M-0.435071-0.160109 3.56543-0.160109 3.56543 55.8403-0.435071 55.8403Z" fill="#FFFFFF" fill-rule="evenodd" transform="matrix(1 0 0 -1 803 2016)"/><path d="M-0.338533-0.160109 2.66184-0.160109 2.66184 55.8403-0.338533 55.8403Z" fill="#FFFFFF" fill-rule="evenodd" transform="matrix(1 0 0 -1 827 2016)"/><path d="M-0.46764-0.160109 3.5325-0.160109 3.5325 55.8403-0.46764 55.8403Z" fill="#FFFFFF" fill-rule="evenodd" transform="matrix(1 0 0 -1 850 2016)"/><path d="M-0.409863-0.200859 166.591-0.200859 166.591 3.79964-0.409863 3.79964Z" fill="#FFFFFF" fill-rule="evenodd" transform="matrix(1 0 0 -1 699 1952)"/><path d="M-0.409863-0.449854 166.591-0.449854 166.591 3.55029-0.409863 3.55029Z" fill="#FFFFFF" fill-rule="evenodd" transform="matrix(1 0 0 -1 699 1680)"/><path d="M-0.369847-0.467429 3.63065-0.467429 3.63065 55.533-0.369847 55.533Z" fill="#FFFFFF" fill-rule="evenodd" transform="matrix(1 0 0 -1 710 1668)"/><path d="M-0.386153-0.467429 3.61435-0.467429 3.61435 55.533-0.386153 55.533Z" fill="#FFFFFF" fill-rule="evenodd" transform="matrix(1 0 0 -1 733 1668)"/><path d="M-0.401975-0.467429 3.59853-0.467429 3.59853 55.533-0.401975 55.533Z" fill="#FFFFFF" fill-rule="evenodd" transform="matrix(1 0 0 -1 757 1668)"/><path d="M-0.418765-0.467429 3.58174-0.467429 3.58174 55.533-0.418765 55.533Z" fill="#FFFFFF" fill-rule="evenodd" transform="matrix(1 0 0 -1 780 1668)"/><path d="M-0.435071-0.467429 3.56543-0.467429 3.56543 55.533-0.435071 55.533Z" fill="#FFFFFF" fill-rule="evenodd" transform="matrix(1 0 0 -1 803 1668)"/><path d="M-0.338533-0.467429 2.66184-0.467429 2.66184 55.533-0.338533 55.533Z" fill="#FFFFFF" fill-rule="evenodd" transform="matrix(1 0 0 -1 827 1668)"/><path d="M-0.46764-0.467429 3.5325-0.467429 3.5325 55.533-0.46764 55.533Z" fill="#FFFFFF" fill-rule="evenodd" transform="matrix(1 0 0 -1 850 1668)"/><path d="M-0.409863-0.518893 166.591-0.518893 166.591 3.48088-0.409863 3.48088Z" fill="#FFFFFF" fill-rule="evenodd" transform="matrix(1 0 0 -1 699 1604)"/><path d="M108.783 503.684 108.783-0.316013-0.216821-0.316013-0.216821 503.684 108.783 503.684" fill="#F57F66" fill-rule="evenodd" transform="matrix(1 0 0 -1 448 2067)"/><path d="M108.783 50.8643 108.783-0.135971-0.216821-0.135971-0.216821 50.8643 108.783 50.8643" fill="#F46A4A" fill-rule="evenodd" transform="matrix(1 0 0 -1 448 2044)"/><path d="M108.783 50.5015 108.783-0.498737-0.216821-0.498737-0.216821 50.5015 108.783 50.5015" fill="#F46A4A" fill-rule="evenodd" transform="matrix(1 0 0 -1 448 1641)"/><path d="M108.783 304.686 108.783-0.314564-0.216821-0.314564-0.216821 304.686 108.783 304.686" fill="#F46A4A" fill-rule="evenodd" transform="matrix(1 0 0 -1 448 1969)"/><path d="M29.7847 40.8355 29.7847 38.8826C37.1591 38.8873 43.8078 36.7829 48.499 33.507 53.2083 30.2127 55.8792 25.8896 55.8774 21.2856 55.8792 16.6868 53.2083 12.3632 48.499 9.06892 43.8078 5.79307 37.161 3.69334 29.7847 3.69804 22.406 3.69334 15.7577 5.79307 11.0665 9.06892 6.35754 12.3632 3.68594 16.6868 3.68774 21.2856 3.68594 25.8896 6.35754 30.2127 11.0665 33.507 15.7595 36.7829 22.406 38.8873 29.7847 38.8826L29.7847 40.8355 29.7847 42.788C21.6705 42.788 14.2935 40.5139 8.8346 36.7142 3.39194 32.9329-0.214076 27.4839-0.217692 21.2856-0.214076 15.0924 3.39194 9.64342 8.8346 5.86217 14.2935 2.06681 21.6705-0.207296 29.7847-0.211999 37.895-0.207296 45.2716 2.06681 50.7305 5.86217 56.1736 9.64342 59.7792 15.0924 59.7828 21.2856 59.7792 27.4839 56.1736 32.9329 50.7323 36.7142 45.2716 40.5139 37.8968 42.788 29.7847 42.788L29.7847 40.8355" fill="#F79986" fill-rule="evenodd" transform="matrix(1 0 0 -1 473 1954)"/><path d="M29.7847 40.6281 29.7847 38.6756C37.1591 38.6803 43.8078 36.5759 48.499 33.2999 53.2083 30.0056 55.8792 25.6867 55.8774 21.083 55.8792 16.4837 53.2083 12.1601 48.499 8.86576 43.8078 5.58551 37.1591 3.48574 29.7847 3.49008 22.406 3.48574 15.7595 5.58551 11.0665 8.86576 6.35754 12.1601 3.68594 16.4837 3.68774 21.083 3.68594 25.6867 6.35754 30.0056 11.0665 33.2999 15.7577 36.5759 22.406 38.6803 29.7847 38.6756L29.7847 40.6281 29.7847 42.581C21.6705 42.5763 14.2935 40.3065 8.8346 36.5071 3.39194 32.7301-0.214076 27.281-0.217692 21.083-0.214076 14.8894 3.39194 9.43556 8.8346 5.65895 14.2935 1.85918 21.6705-0.415322 29.7847-0.419664 37.8968-0.415322 45.2716 1.85918 50.7323 5.65895 56.1736 9.43556 59.7792 14.8894 59.7828 21.083 59.7792 27.281 56.1736 32.7301 50.7305 36.5071 45.2716 40.3065 37.895 42.5763 29.7847 42.581L29.7847 40.6281" fill="#F79986" fill-rule="evenodd" transform="matrix(1 0 0 -1 473 1721)"/><path d="M-0.579278-0.301772 149.421-0.301772 149.421 472.698-0.579278 472.698Z" fill="#F25855" fill-rule="evenodd" transform="matrix(1 0 0 -1 957 2067)"/><path d="M149.421 46.8696 149.421-0.130453-0.579278-0.130453-0.579278 46.8696 149.421 46.8696" fill="#F03F36" fill-rule="evenodd" transform="matrix(1 0 0 -1 957 2045)"/><path d="M149.421 46.5352 149.421-0.46488-0.579278-0.46488-0.579278 46.5352 149.421 46.5352" fill="#F03F36" fill-rule="evenodd" transform="matrix(1 0 0 -1 957 1666)"/><path d="M-0.579278-0.301496 149.421-0.301496 149.421 286.699-0.579278 286.699Z" fill="#F03F36" fill-rule="evenodd" transform="matrix(1 0 0 -1 957 1975)"/><path d="M-0.579116-0.36834 145.421-0.36834 145.421 2.63168-0.579116 2.63168Z" fill="#FFFFFF" fill-rule="evenodd" transform="matrix(1 0 0 -1 960 1634)"/><path d="M-0.579116-0.0957363 145.421-0.0957363 145.421 2.904-0.579116 2.904Z" fill="#FFFFFF" fill-rule="evenodd" transform="matrix(1 0 0 -1 960 2031)"/><path d="M61.4324-0.302079C61.428-0.302079 61.4234-0.302079 61.4187-0.302079 61.414-0.302079 61.4097-0.302079 61.405-0.302079 52.5978-0.302079 44.253 3.17201 36.8147 9.25908 29.3624 15.3552 22.7571 24.0639 17.2277 34.7435 6.18216 56.1023-0.574532 85.3773-0.578857 117.7-0.578857 141.938 3.22949 164.471 9.78434 183.226 16.3486 201.982 25.6409 216.993 36.8147 226.142 44.253 232.228 52.5978 235.698 61.405 235.698 61.4097 235.698 61.414 235.698 61.4187 235.698 61.4234 235.698 61.428 235.698 61.4324 235.698 70.2396 235.698 78.5843 232.228 86.0273 226.142 93.4796 220.046 100.085 211.332 105.61 200.657 116.66 179.298 123.416 150.019 123.421 117.7L123.421 117.7 123.421 117.7 123.421 117.7C123.416 93.458 119.613 70.9302 113.053 52.1699 106.489 33.4142 97.2011 18.403 86.0273 9.25908 78.5843 3.17201 70.2396-0.302079 61.4324-0.302079M61.4187 231.802C53.6463 231.798 46.2029 228.777 39.2729 223.121 32.3562 217.47 26.0208 209.187 20.6835 198.865 9.99519 178.221 3.30734 149.469 3.31203 117.7 3.31203 93.8705 7.06559 71.7415 13.4604 53.4576 19.8459 35.1697 28.8956 20.7453 39.2729 12.2748 46.2029 6.62337 53.6463 3.59825 61.4187 3.59825 69.1914 3.59825 76.6391 6.62337 83.5648 12.2748 90.4812 17.9263 96.8165 26.2134 102.154 36.5354 112.847 57.1796 119.535 85.9273 119.526 117.7 119.53 141.53 115.772 163.654 109.382 181.938 102.996 200.231 93.9417 214.651 83.5648 223.121 76.6391 228.773 69.1914 231.798 61.4187 231.802M123.421 117.7 123.421 117.7 123.421 117.7" fill="#F36360" fill-rule="evenodd" transform="matrix(1 0 0 -1 972 1948)"/><text fill="#FFFFFF" font-family="Arial,Arial_MSFontService,sans-serif" font-weight="400" font-size="117" transform="matrix(1 0 0 1 872.706 1904)">K</text><text fill="#FFFFFF" font-family="Arial,Arial_MSFontService,sans-serif" font-weight="400" font-size="155" transform="matrix(1 0 0 1 578.455 1925)">O</text><text fill="#FFFFFF" font-family="Arial,Arial_MSFontService,sans-serif" font-weight="400" font-size="179" transform="matrix(1 0 0 1 723.184 1858)">O</text><text fill="#FFFFFF" font-family="Arial,Arial_MSFontService,sans-serif" font-weight="400" font-size="155" transform="matrix(1 0 0 1 985.217 1874)">S</text><text fill="#FFFFFF" font-family="Arial,Arial_MSFontService,sans-serif" font-weight="400" font-size="144" transform="matrix(1 0 0 1 458.306 1854)">B</text></g></svg>